<?xml version="1.0" encoding="UTF-8"?>
<svg xmlns="http://www.w3.org/2000/svg" viewBox="0 0 800 500" width="800" height="500">
  <style>
    @keyframes normalNoise {
      0% { transform: translateX(0); }
      100% { transform: translateX(-200px); }
    }
    @keyframes minorNoise {
      0% { transform: translateX(0); }
      100% { transform: translateX(-200px); }
    }
    @keyframes severeNoise {
      0% { transform: translateX(0); }
      100% { transform: translateX(-200px); }
    }
    @keyframes scoreRise {
      0% { width: 0; }
      100% { width: 100%; }
    }
    @keyframes fadeIn {
      0% { opacity: 0; }
      100% { opacity: 1; }
    }
    @keyframes rotate {
      0% { transform: rotate(0deg); }
      100% { transform: rotate(360deg); }
    }
    @keyframes wobble {
      0% { transform: rotate(0deg); }
      25% { transform: rotate(2deg); }
      50% { transform: rotate(0deg); }
      75% { transform: rotate(-2deg); }
      100% { transform: rotate(0deg); }
    }
    @keyframes heavyWobble {
      0% { transform: rotate(0deg); }
      25% { transform: rotate(5deg); }
      50% { transform: rotate(-3deg); }
      75% { transform: rotate(4deg); }
      100% { transform: rotate(0deg); }
    }
    .title {
      font-family: Arial, sans-serif;
      font-size: 24px;
      font-weight: bold;
      text-anchor: middle;
    }
    .subtitle {
      font-family: Arial, sans-serif;
      font-size: 14px;
      text-anchor: middle;
      fill: #666;
    }
    .label {
      font-family: Arial, sans-serif;
      font-size: 16px;
      font-weight: bold;
    }
    .sublabel {
      font-family: Arial, sans-serif;
      font-size: 12px;
      fill: #666;
    }
    .score-text {
      font-family: Arial, sans-serif;
      font-size: 16px;
      font-weight: bold;
      text-anchor: middle;
    }
    .noise-wave {
      animation-duration: 8s;
      animation-iteration-count: infinite;
      animation-timing-function: linear;
    }
    .normal-noise { 
      animation-name: normalNoise;
      stroke: #4CAF50;
    }
    .minor-noise {
      animation-name: minorNoise;
      stroke: #FFC107;
    }
    .severe-noise {
      animation-name: severeNoise;
      stroke: #F44336;
    }
    .score-bar {
      animation: scoreRise 2s ease-out forwards;
    }
    .panel {
      animation: fadeIn 1s ease-out forwards;
    }
    .normal-tool {
      animation: rotate 10s linear infinite;
    }
    .minor-tool {
      animation: rotate 10s linear infinite, wobble 0.5s ease-in-out infinite;
    }
    .severe-tool {
      animation: rotate 10s linear infinite, heavyWobble 0.3s ease-in-out infinite;
    }
    .disclaimer {
      font-family: Arial, sans-serif;
      font-size: 10px;
      fill: #999;
      text-anchor: middle;
    }
  </style>

  <!-- 배경 -->
  <rect width="800" height="500" fill="#f8f9fa" rx="10" ry="10" />

  <!-- 제목 -->
  <text x="400" y="40" class="title">SoundPose 기반 절삭 공구 상태 분석</text>
  <text x="400" y="65" class="subtitle">트랜스포머 기반 정량적 소음 이상 진단 시각화</text>

  <!-- 정상 상태 패널 -->
  <g class="panel" style="opacity: 0; animation-delay: 0.2s">
    <rect x="50" y="100" width="700" height="100" fill="white" stroke="#ddd" rx="5" ry="5" />
    <text x="70" y="125" class="label">정상 상태</text>
    <text x="70" y="145" class="sublabel">노이즈 레벨: 0.08</text>
    
    <!-- 절삭 공구 아이콘 -->
    <g transform="translate(180, 150)">
      <g class="normal-tool">
        <circle cx="0" cy="0" r="25" fill="none" stroke="#4CAF50" stroke-width="2" />
        <path d="M0,-25 L0,25 M-25,0 L25,0" stroke="#4CAF50" stroke-width="2" />
        <circle cx="0" cy="0" r="5" fill="#4CAF50" />
      </g>
    </g>
    
    <!-- 노이즈 시각화 -->
    <clipPath id="normalClip">
      <rect x="250" y="110" width="350" height="80" />
    </clipPath>
    <g clip-path="url(#normalClip)">
      <path d="M250,150 
               Q260,148 270,150 
               Q280,152 290,150 
               Q300,148 310,150 
               Q320,152 330,150 
               Q340,148 350,150 
               Q360,152 370,150 
               Q380,148 390,150 
               Q400,152 410,150 
               Q420,148 430,150 
               Q440,152 450,150 
               Q460,148 470,150 
               Q480,152 490,150 
               Q500,148 510,150 
               Q520,152 530,150 
               Q540,148 550,150 
               Q560,152 570,150 
               Q580,148 590,150" 
        fill="none" stroke-width="2" class="noise-wave normal-noise" />
    </g>
    
    <!-- 점수 바 -->
    <rect x="620" y="125" width="100" height="20" fill="#eee" rx="3" ry="3" />
    <rect x="620" y="125" width="8" height="20" fill="#4CAF50" rx="3" ry="3" class="score-bar" />
    <text x="670" y="140" class="score-text">8%</text>
  </g>

  <!-- 약간 비정상 상태 패널 -->
  <g class="panel" style="opacity: 0; animation-delay: 0.4s">
    <rect x="50" y="220" width="700" height="100" fill="white" stroke="#ddd" rx="5" ry="5" />
    <text x="70" y="245" class="label">약간 비정상 상태</text>
    <text x="70" y="265" class="sublabel">노이즈 레벨: 0.38</text>
    
    <!-- 절삭 공구 아이콘 -->
    <g transform="translate(180, 270)">
      <g class="minor-tool">
        <circle cx="0" cy="0" r="25" fill="none" stroke="#FFC107" stroke-width="2" />
        <path d="M0,-25 L0,25 M-25,0 L25,0" stroke="#FFC107" stroke-width="2" />
        <circle cx="0" cy="0" r="5" fill="#FFC107" />
        <path d="M15,15 L20,20 M-15,-15 L-20,-20" stroke="#FFC107" stroke-width="2" />
      </g>
    </g>
    
    <!-- 노이즈 시각화 -->
    <clipPath id="minorClip">
      <rect x="250" y="230" width="350" height="80" />
    </clipPath>
    <g clip-path="url(#minorClip)">
      <path d="M250,270 
               Q260,260 270,275 
               Q280,280 290,265 
               Q300,255 310,270 
               Q320,280 330,265 
               Q340,260 350,275 
               Q360,280 370,265 
               Q380,255 390,270 
               Q400,280 410,265 
               Q420,260 430,275 
               Q440,280 450,265 
               Q460,255 470,270 
               Q480,280 490,265 
               Q500,260 510,275 
               Q520,280 530,265 
               Q540,255 550,270 
               Q560,280 570,265 
               Q580,260 590,275" 
        fill="none" stroke-width="2.5" class="noise-wave minor-noise" />
    </g>
    
    <!-- 점수 바 -->
    <rect x="620" y="245" width="100" height="20" fill="#eee" rx="3" ry="3" />
    <rect x="620" y="245" width="38" height="20" fill="#FFC107" rx="3" ry="3" class="score-bar" />
    <text x="670" y="260" class="score-text">38%</text>
  </g>

  <!-- 심각한 고장 상태 패널 -->
  <g class="panel" style="opacity: 0; animation-delay: 0.6s">
    <rect x="50" y="340" width="700" height="100" fill="white" stroke="#ddd" rx="5" ry="5" />
    <text x="70" y="365" class="label">심각한 고장 상태</text>
    <text x="70" y="385" class="sublabel">노이즈 레벨: 0.91</text>
    
    <!-- 절삭 공구 아이콘 -->
    <g transform="translate(180, 390)">
      <g class="severe-tool">
        <circle cx="0" cy="0" r="25" fill="none" stroke="#F44336" stroke-width="2" />
        <path d="M0,-25 L0,25 M-25,0 L25,0" stroke="#F44336" stroke-width="2" stroke-dasharray="3,2" />
        <circle cx="0" cy="0" r="5" fill="#F44336" />
        <path d="M15,15 L25,25 M-15,-15 L-25,-25 M-15,15 L-25,25 M15,-15 L25,-25" stroke="#F44336" stroke-width="2" />
        <path d="M5,0 L10,7 M-5,0 L-10,-7" stroke="#F44336" stroke-width="3" />
      </g>
    </g>
    
    <!-- 노이즈 시각화 -->
    <clipPath id="severeClip">
      <rect x="250" y="350" width="350" height="80" />
    </clipPath>
    <g clip-path="url(#severeClip)">
      <path d="M250,390 
               Q255,360 260,395 
               Q265,420 270,375 
               Q275,350 280,400 
               Q285,420 290,375 
               Q295,350 300,400 
               Q305,430 310,370 
               Q315,350 320,400 
               Q325,425 330,370 
               Q335,350 340,410 
               Q345,430 350,365 
               Q355,345 360,405 
               Q365,430 370,365 
               Q375,350 380,410 
               Q385,430 390,360 
               Q395,340 400,405 
               Q405,430 410,365 
               Q415,340 420,400 
               Q425,430 430,365 
               Q435,340 440,405 
               Q445,430 450,360" 
        fill="none" stroke-width="3" class="noise-wave severe-noise" />
      <path d="M260,390 
               Q265,370 270,395 
               Q275,410 280,375 
               Q285,360 290,400 
               Q295,410 300,380 
               Q305,360 310,400 
               Q315,420 320,370 
               Q325,350 330,405 
               Q335,420 340,375 
               Q345,350 350,400 
               Q355,420 360,370 
               Q365,350 370,405 
               Q375,425 380,370 
               Q385,345 390,400 
               Q395,425 400,370 
               Q405,345 410,405 
               Q415,430 420,365 
               Q425,345 430,405 
               Q435,430 440,360" 
        fill="none" stroke-width="2" stroke-dasharray="3,2" class="noise-wave severe-noise" />
    </g>
    
    <!-- 점수 바 -->
    <rect x="620" y="365" width="100" height="20" fill="#eee" rx="3" ry="3" />
    <rect x="620" y="365" width="91" height="20" fill="#F44336" rx="3" ry="3" class="score-bar" />
    <text x="670" y="380" class="score-text">91%</text>
  </g>

  <!-- 범례 -->
  <rect x="50" y="460" width="700" height="1" fill="#ddd" />
  <text x="400" y="480" class="disclaimer">
    본 시각화는 SoundPose 알고리즘에 의거한 가상적인 상황을 연출한 것으로, 실제 기계 진단 목적으로 사용될 수 없습니다.
  </text>
</svg>