<?xml version="1.0" encoding="UTF-8"?>
<svg xmlns="http://www.w3.org/2000/svg" viewBox="0 0 1000 500">
  <style>
    @keyframes fadeIn {
      0% { opacity: 0; }
      100% { opacity: 1; }
    }
    
    @keyframes flow {
      0% { stroke-dashoffset: 1000; }
      100% { stroke-dashoffset: 0; }
    }
    
    @keyframes highlight {
      0% { opacity: 0.6; }
      50% { opacity: 1; }
      100% { opacity: 0.6; }
    }
    
    @keyframes pulse {
      0% { transform: scale(1); }
      50% { transform: scale(1.05); }
      100% { transform: scale(1); }
    }
    
    .transformer-blocks {
      animation: fadeIn 1s forwards;
    }
    
    .flow-arrow {
      stroke-dasharray: 15, 5;
      animation: flow 15s linear infinite;
    }
    
    .highlight-section {
      animation: highlight 3s infinite;
    }
    
    .pulse-element {
      animation: pulse 2s infinite;
    }
  </style>
  
  <defs>
    <linearGradient id="bg-grad" x1="0%" y1="0%" x2="100%" y2="100%">
      <stop offset="0%" stop-color="#F5F7FA" />
      <stop offset="100%" stop-color="#E5E9F2" />
    </linearGradient>
    
    <linearGradient id="audio-grad" x1="0%" y1="0%" x2="100%" y2="100%">
      <stop offset="0%" stop-color="#4285F4" />
      <stop offset="100%" stop-color="#256ce3" />
    </linearGradient>
    
    <linearGradient id="transformer-grad" x1="0%" y1="0%" x2="100%" y2="100%">
      <stop offset="0%" stop-color="#6C5CE7" />
      <stop offset="100%" stop-color="#5546c5" />
    </linearGradient>
    
    <linearGradient id="gan-grad" x1="0%" y1="0%" x2="100%" y2="100%">
      <stop offset="0%" stop-color="#EA4C89" />
      <stop offset="100%" stop-color="#d02e6a" />
    </linearGradient>
    
    <linearGradient id="output-grad" x1="0%" y1="0%" x2="100%" y2="100%">
      <stop offset="0%" stop-color="#27AE60" />
      <stop offset="100%" stop-color="#1f9a51" />
    </linearGradient>
    
    <filter id="drop-shadow" x="-20%" y="-20%" width="140%" height="140%">
      <feDropShadow dx="3" dy="3" stdDeviation="5" flood-opacity="0.2" />
    </filter>
  </defs>
  
  <!-- Background -->
  <rect width="1000" height="500" fill="url(#bg-grad)" rx="20" />
  
  <!-- Title -->
  <text x="500" y="50" font-family="Arial, sans-serif" font-size="28" font-weight="bold" fill="#333" text-anchor="middle">SoundPose Architecture</text>
  
  <!-- Input Section -->
  <g transform="translate(150, 150)">
    <rect x="-80" y="-60" width="160" height="220" rx="10" fill="url(#audio-grad)" filter="url(#drop-shadow)" />
    
    <text x="0" y="-30" font-family="Arial, sans-serif" font-size="16" font-weight="bold" fill="white" text-anchor="middle">Input Processing</text>
    
    <!-- Voice waveform -->
    <g transform="translate(0, 0)">
      <rect x="-60" y="-25" width="120" height="50" rx="5" fill="white" opacity="0.2" />
      <path d="M-50,-10 Q-40,20 -30,-5 Q-20,15 -10,-15 Q0,25 10,-5 Q20,15 30,-10 Q40,20 50,0" stroke="white" stroke-width="2" fill="none" />
      <text x="0" y="35" font-family="Arial, sans-serif" font-size="12" fill="white" text-anchor="middle">Audio Input</text>
    </g>
    
    <!-- Spectrum -->
    <g transform="translate(0, 100)">
      <rect class="pulse-element" x="-60" y="-25" width="120" height="50" rx="5" fill="white" opacity="0.2" />
      <rect x="-50" y="-15" width="10" height="30" fill="white" opacity="0.5" />
      <rect x="-35" y="-10" width="10" height="20" fill="white" opacity="0.5" />
      <rect x="-20" y="-18" width="10" height="36" fill="white" opacity="0.5" />
      <rect x="-5" y="-5" width="10" height="10" fill="white" opacity="0.5" />
      <rect x="10" y="-12" width="10" height="24" fill="white" opacity="0.5" />
      <rect x="25" y="-20" width="10" height="40" fill="white" opacity="0.5" />
      <rect x="40" y="-8" width="10" height="16" fill="white" opacity="0.5" />
      <text x="0" y="35" font-family="Arial, sans-serif" font-size="12" fill="white" text-anchor="middle">Spectral Features</text>
    </g>
  </g>
  
  <!-- Transformer Section -->
  <g class="transformer-blocks" transform="translate(400, 150)">
    <rect x="-130" y="-60" width="260" height="220" rx="10" fill="url(#transformer-grad)" filter="url(#drop-shadow)" />
    
    <text x="0" y="-30" font-family="Arial, sans-serif" font-size="16" font-weight="bold" fill="white" text-anchor="middle">Transformer Encoder</text>
    
    <!-- Self Attention -->
    <g transform="translate(0, -10)">
      <rect x="-110" y="-20" width="220" height="40" rx="5" fill="white" opacity="0.15" />
      
      <text x="0" y="5" font-family="Arial, sans-serif" font-size="14" fill="white" text-anchor="middle">Multi-Head Self-Attention</text>
      
      <!-- Attention heads visualization -->
      <g transform="translate(-70, 0)">
        <circle cx="0" cy="0" r="8" fill="white" opacity="0.5" />
        <line x1="-5" y1="-5" x2="5" y2="5" stroke="white" stroke-width="1.5" />
        <line x1="-5" y1="5" x2="5" y2="-5" stroke="white" stroke-width="1.5" />
      </g>
      
      <g transform="translate(-40, 0)">
        <circle cx="0" cy="0" r="8" fill="white" opacity="0.5" />
        <line x1="-5" y1="-5" x2="5" y2="5" stroke="white" stroke-width="1.5" />
        <line x1="-5" y1="5" x2="5" y2="-5" stroke="white" stroke-width="1.5" />
      </g>
      
      <g transform="translate(40, 0)">
        <circle cx="0" cy="0" r="8" fill="white" opacity="0.5" />
        <line x1="-5" y1="-5" x2="5" y2="5" stroke="white" stroke-width="1.5" />
        <line x1="-5" y1="5" x2="5" y2="-5" stroke="white" stroke-width="1.5" />
      </g>
      
      <g transform="translate(70, 0)">
        <circle cx="0" cy="0" r="8" fill="white" opacity="0.5" />
        <line x1="-5" y1="-5" x2="5" y2="5" stroke="white" stroke-width="1.5" />
        <line x1="-5" y1="5" x2="5" y2="-5" stroke="white" stroke-width="1.5" />
      </g>
    </g>
    
    <!-- Feed Forward -->
    <g transform="translate(0, 50)">
      <rect x="-110" y="-20" width="220" height="40" rx="5" fill="white" opacity="0.15" />
      <text x="0" y="5" font-family="Arial, sans-serif" font-size="14" fill="white" text-anchor="middle">Feed Forward Network</text>
      
      <!-- Network visualization -->
      <g transform="translate(-60, 0) scale(0.8)">
        <circle cx="-20" cy="-10" r="5" fill="white" opacity="0.7" />
        <circle cx="-20" cy="0" r="5" fill="white" opacity="0.7" />
        <circle cx="-20" cy="10" r="5" fill="white" opacity="0.7" />
        
        <circle cx="0" cy="-15" r="5" fill="white" opacity="0.7" />
        <circle cx="0" cy="-5" r="5" fill="white" opacity="0.7" />
        <circle cx="0" cy="5" r="5" fill="white" opacity="0.7" />
        <circle cx="0" cy="15" r="5" fill="white" opacity="0.7" />
        
        <circle cx="20" cy="-10" r="5" fill="white" opacity="0.7" />
        <circle cx="20" cy="0" r="5" fill="white" opacity="0.7" />
        <circle cx="20" cy="10" r="5" fill="white" opacity="0.7" />
        
        <line x1="-20" y1="-10" x2="0" y2="-15" stroke="white" stroke-width="1" />
        <line x1="-20" y1="-10" x2="0" y2="-5" stroke="white" stroke-width="1" />
        <line x1="-20" y1="0" x2="0" y2="-5" stroke="white" stroke-width="1" />
        <line x1="-20" y1="0" x2="0" y2="5" stroke="white" stroke-width="1" />
        <line x1="-20" y1="10" x2="0" y2="5" stroke="white" stroke-width="1" />
        <line x1="-20" y1="10" x2="0" y2="15" stroke="white" stroke-width="1" />
        
        <line x1="0" y1="-15" x2="20" y2="-10" stroke="white" stroke-width="1" />
        <line x1="0" y1="-5" x2="20" y2="-10" stroke="white" stroke-width="1" />
        <line x1="0" y1="-5" x2="20" y2="0" stroke="white" stroke-width="1" />
        <line x1="0" y1="5" x2="20" y2="0" stroke="white" stroke-width="1" />
        <line x1="0" y1="5" x2="20" y2="10" stroke="white" stroke-width="1" />
        <line x1="0" y1="15" x2="20" y2="10" stroke="white" stroke-width="1" />
      </g>
    </g>
    
    <!-- Feature Output -->
    <g class="highlight-section" transform="translate(0, 110)">
      <rect x="-110" y="-20" width="220" height="40" rx="5" fill="white" opacity="0.2" />
      <text x="0" y="5" font-family="Arial, sans-serif" font-size="14" fill="white" text-anchor="middle">Extracted Contextual Features</text>
    </g>
  </g>
  
  <!-- Anomaly Detection Section -->
  <g transform="translate(700, 150)">
    <rect x="-100" y="-60" width="200" height="220" rx="10" fill="url(#gan-grad)" filter="url(#drop-shadow)" />
    
    <text x="0" y="-30" font-family="Arial, sans-serif" font-size="16" font-weight="bold" fill="white" text-anchor="middle">Anomaly Quantification</text>
    
    <!-- Generative section -->
    <g transform="translate(0, 0)">
      <rect x="-80" y="-25" width="160" height="50" rx="5" fill="white" opacity="0.15" />
      <text x="0" y="5" font-family="Arial, sans-serif" font-size="13" fill="white" text-anchor="middle">Generative Model</text>
      
      <!-- Generator icon -->
      <g transform="translate(-40, 0) scale(0.7)">
        <circle cx="0" cy="0" r="12" fill="white" opacity="0.6" />
        <text x="0" y="4" font-family="Arial, sans-serif" font-size="12" fill="#EA4C89" text-anchor="middle" font-weight="bold">G</text>
      </g>
      
      <!-- Generator output -->
      <path d="M-20,0 H20" stroke="white" stroke-width="2" stroke-dasharray="4 2" />
      
      <!-- Synthetic output -->
      <g transform="translate(40, 0) scale(0.7)">
        <rect x="-10" y="-10" width="20" height="20" fill="white" opacity="0.5" />
        <path d="M-6,-6 L6,6 M-6,6 L6,-6" stroke="#EA4C89" stroke-width="2" />
      </g>
    </g>
    
    <!-- Residual Loss Computation -->
    <g class="pulse-element" transform="translate(0, 60)">
      <rect x="-80" y="-25" width="160" height="50" rx="5" fill="white" opacity="0.2" />
      <text x="0" y="5" font-family="Arial, sans-serif" font-size="13" fill="white" text-anchor="middle">Residual Loss</text>
      
      <text x="0" y="-10" font-family="Arial, sans-serif" font-size="12" fill="white" text-anchor="middle" opacity="0.7">|x - G(z)|</text>
    </g>
    
    <!-- Scoring -->
    <g transform="translate(0, 120)">
      <rect x="-80" y="-25" width="160" height="50" rx="5" fill="white" opacity="0.15" />
      <text x="0" y="5" font-family="Arial, sans-serif" font-size="13" fill="white" text-anchor="middle">Anomaly Scoring</text>
      
      <!-- Score scale -->
      <rect x="-50" y="-10" width="100" height="10" rx="5" fill="white" opacity="0.3" />
      <rect x="-50" y="-10" width="60" height="10" rx="5" fill="white" opacity="0.7" />
      <circle cx="10" cy="-5" r="6" fill="white" />
    </g>
  </g>
  
  <!-- Flow arrows -->
  <g>
    <path class="flow-arrow" d="M230,150 H320" stroke="#666" stroke-width="3" fill="none" marker-end="url(#arrowhead)" />
    <path class="flow-arrow" d="M530,150 H600" stroke="#666" stroke-width="3" fill="none" marker-end="url(#arrowhead)" />
    <path class="flow-arrow" d="M800,150 H870" stroke="#666" stroke-width="3" fill="none" marker-end="url(#arrowhead)" />
  </g>
  
  <!-- Diagnostic Output -->
  <g transform="translate(870, 400)">
    <rect x="-50" y="-50" width="100" height="100" rx="10" fill="url(#output-grad)" filter="url(#drop-shadow)" />
    
    <text x="0" y="-20" font-family="Arial, sans-serif" font-size="14" font-weight="bold" fill="white" text-anchor="middle">Results</text>
    
    <!-- Report icon -->
    <g>
      <rect x="-20" y="-10" width="40" height="50" fill="white" opacity="0.3" rx="3" />
      <line x1="-10" y1="0" x2="10" y2="0" stroke="white" stroke-width="2" />
      <line x1="-10" y1="10" x2="10" y2="10" stroke="white" stroke-width="2" />
      <line x1="-10" y1="20" x2="0" y2="20" stroke="white" stroke-width="2" />
    </g>
  </g>
  
  <!-- Flow from Anomaly to Results -->
  <path class="flow-arrow" d="M700,260 Q730,350 870,350" stroke="#666" stroke-width="3" fill="none" marker-end="url(#arrowhead)" />
  
  <!-- Arrow markers -->
  <defs>
    <marker id="arrowhead" markerWidth="10" markerHeight="7" refX="9" refY="3.5" orient="auto">
      <polygon points="0 0, 10 3.5, 0 7" fill="#666" />
    </marker>
  </defs>
</svg>
