<?xml version="1.0" encoding="UTF-8"?>
<svg xmlns="http://www.w3.org/2000/svg" viewBox="0 0 900 500">
  <style>
    @keyframes fadeIn {
      0% { opacity: 0; }
      100% { opacity: 1; }
    }
    
    @keyframes highlight {
      0% { opacity: 0.7; }
      50% { opacity: 1; }
      100% { opacity: 0.7; }
    }
    
    @keyframes grow {
      0% { transform: scale(0.95); }
      50% { transform: scale(1); }
      100% { transform: scale(0.95); }
    }
    
    .fade-in {
      animation: fadeIn 1s forwards;
    }
    
    .highlight {
      animation: highlight 3s infinite;
    }
    
    .grow {
      animation: grow 3s infinite;
    }
  </style>
  
  <defs>
    <linearGradient id="bg-gradient" x1="0%" y1="0%" x2="100%" y2="100%">
      <stop offset="0%" stop-color="#F5F7FA" />
      <stop offset="100%" stop-color="#E5E9F2" />
    </linearGradient>
    
    <linearGradient id="traditional-gradient" x1="0%" y1="0%" x2="100%" y2="100%">
      <stop offset="0%" stop-color="#818CF8" />
      <stop offset="100%" stop-color="#6366F1" />
    </linearGradient>
    
    <linearGradient id="soundpose-gradient" x1="0%" y1="0%" x2="100%" y2="100%">
      <stop offset="0%" stop-color="#4F46E5" />
      <stop offset="100%" stop-color="#3730A3" />
    </linearGradient>
    
    <filter id="shadow" x="-20%" y="-20%" width="140%" height="140%">
      <feDropShadow dx="2" dy="2" stdDeviation="3" flood-opacity="0.2" />
    </filter>
  </defs>
  
  <!-- Background -->
  <rect width="900" height="500" fill="url(#bg-gradient)" rx="20" />
  
  <!-- Title -->
  <text x="450" y="50" font-family="Arial, sans-serif" font-size="24" font-weight="bold" fill="#333" text-anchor="middle">SoundPose vs. Traditional Approaches</text>
  
  <!-- Divider Line -->
  <line x1="450" y1="80" x2="450" y2="470" stroke="#CCC" stroke-width="2" stroke-dasharray="5,5" />
  
  <!-- Section Headers -->
  <text x="225" y="100" font-family="Arial, sans-serif" font-size="18" font-weight="bold" fill="#666" text-anchor="middle">Traditional Classification Methods</text>
  <text x="675" y="100" font-family="Arial, sans-serif" font-size="18" font-weight="bold" fill="#666" text-anchor="middle" class="highlight">SoundPose Approach</text>
  
  <!-- Traditional Approach -->
  <g transform="translate(225, 170)">
    <rect x="-150" y="-50" width="300" height="260" rx="10" fill="url(#traditional-gradient)" filter="url(#shadow)" opacity="0.9" />
    
    <!-- Binary Classification Icon -->
    <g transform="translate(0, -20)">
      <circle cx="-60" cy="0" r="25" fill="white" opacity="0.2" />
      <text x="-60" y="6" font-family="Arial, sans-serif" font-size="18" fill="white" text-anchor="middle" font-weight="bold">0</text>
      
      <circle cx="60" cy="0" r="25" fill="white" opacity="0.2" />
      <text x="60" y="6" font-family="Arial, sans-serif" font-size="18" fill="white" text-anchor="middle" font-weight="bold">1</text>
      
      <line x1="-30" y1="0" x2="30" y2="0" stroke="white" stroke-width="2" stroke-dasharray="5,3" />
    </g>
    
    <!-- Characteristics -->
    <g transform="translate(0, 60)">
      <text x="0" y="0" font-family="Arial, sans-serif" font-size="14" fill="white" text-anchor="middle" font-weight="bold">Characteristics:</text>
      
      <g transform="translate(0, 30)">
        <circle cx="-125" cy="0" r="6" fill="white" />
        <text x="-110" y="5" font-family="Arial, sans-serif" font-size="12" fill="white" text-anchor="start">Binary classification</text>
      </g>
      
      <g transform="translate(0, 55)">
        <circle cx="-125" cy="0" r="6" fill="white" />
        <text x="-110" y="5" font-family="Arial, sans-serif" font-size="12" fill="white" text-anchor="start">Requires labeled anomalies</text>
      </g>
      
      <g transform="translate(0, 80)">
        <circle cx="-125" cy="0" r="6" fill="white" />
        <text x="-110" y="5" font-family="Arial, sans-serif" font-size="12" fill="white" text-anchor="start">Limited to known patterns</text>
      </g>
      
      <g transform="translate(0, 105)">
        <circle cx="-125" cy="0" r="6" fill="white" />
        <text x="-110" y="5" font-family="Arial, sans-serif" font-size="12" fill="white" text-anchor="start">Can't quantify severity</text>
      </g>
    </g>
  </g>
  
  <!-- SoundPose Approach -->
  <g transform="translate(675, 170)" class="fade-in">
    <rect class="grow" x="-150" y="-50" width="300" height="260" rx="10" fill="url(#soundpose-gradient)" filter="url(#shadow)" />
    
    <!-- Quantitative Scoring Icon -->
    <g transform="translate(0, -20)">
      <rect x="-80" y="-20" width="160" height="40" rx="5" fill="white" opacity="0.2" />
      
      <!-- Score scale visualization -->
      <rect x="-70" y="-5" width="140" height="10" rx="5" fill="white" opacity="0.3" />
      
      <!-- Normal marker -->
      <circle cx="-50" cy="0" r="8" fill="#27AE60" />
      <text x="-50" y="25" font-family="Arial, sans-serif" font-size="10" fill="white" text-anchor="middle">Normal</text>
      
      <!-- Mild marker -->
      <circle cx="0" cy="0" r="8" fill="#F1C40F" />
      <text x="0" y="25" font-family="Arial, sans-serif" font-size="10" fill="white" text-anchor="middle">Mild</text>
      
      <!-- Severe marker -->
      <circle cx="50" cy="0" r="8" fill="#E74C3C" />
      <text x="50" y="25" font-family="Arial, sans-serif" font-size="10" fill="white" text-anchor="middle">Severe</text>
    </g>
    
    <!-- Characteristics -->
    <g transform="translate(0, 60)">
      <text x="0" y="0" font-family="Arial, sans-serif" font-size="14" fill="white" text-anchor="middle" font-weight="bold">Characteristics:</text>
      
      <g transform="translate(0, 30)" class="highlight">
        <circle cx="-125" cy="0" r="6" fill="white" />
        <text x="-110" y="5" font-family="Arial, sans-serif" font-size="12" fill="white" text-anchor="start">Continuous quantification</text>
      </g>
      
      <g transform="translate(0, 55)">
        <circle cx="-125" cy="0" r="6" fill="white" />
        <text x="-110" y="5" font-family="Arial, sans-serif" font-size="12" fill="white" text-anchor="start">Learns normal patterns only</text>
      </g>
      
      <g transform="translate(0, 80)">
        <circle cx="-125" cy="0" r="6" fill="white" />
        <text x="-110" y="5" font-family="Arial, sans-serif" font-size="12" fill="white" text-anchor="start">Detects unknown anomalies</text>
      </g>
      
      <g transform="translate(0, 105)">
        <circle cx="-125" cy="0" r="6" fill="white" />
        <text x="-110" y="5" font-family="Arial, sans-serif" font-size="12" fill="white" text-anchor="start">Transformer-based features</text>
      </g>
    </g>
  </g>
  
  <!-- Key Advantages -->
  <g transform="translate(450, 400)">
    <rect x="-350" y="-10" width="700" height="70" rx="10" fill="#4F46E5" filter="url(#shadow)" opacity="0.9" />
    
    <text x="0" y="20" font-family="Arial, sans-serif" font-size="16" font-weight="bold" fill="white" text-anchor="middle">Key Advantages of SoundPose</text>
    
    <g transform="translate(-260, 45)">
      <path d="M-5,-5 L5,5 M-5,5 L5,-5" stroke="white" stroke-width="2" />
      <text x="15" y="5" font-family="Arial, sans-serif" font-size="12" fill="white" text-anchor="start">Personalized baselines</text>
    </g>
    
    <g transform="translate(-80, 45)">
      <path d="M-5,-5 L5,5 M-5,5 L5,-5" stroke="white" stroke-width="2" />
      <text x="15" y="5" font-family="Arial, sans-serif" font-size="12" fill="white" text-anchor="start">Temporal tracking</text>
    </g>
    
    <g transform="translate(100, 45)">
      <path d="M-5,-5 L5,5 M-5,5 L5,-5" stroke="white" stroke-width="2" />
      <text x="15" y="5" font-family="Arial, sans-serif" font-size="12" fill="white" text-anchor="start">Early detection</text>
    </g>
    
    <g transform="translate(260, 45)">
      <path d="M-5,-5 L5,5 M-5,5 L5,-5" stroke="white" stroke-width="2" />
      <text x="15" y="5" font-family="Arial, sans-serif" font-size="12" fill="white" text-anchor="start">Reduced false positives</text>
    </g>
  </g>
</svg>
