<?xml version="1.0" encoding="UTF-8"?>
<svg xmlns="http://www.w3.org/2000/svg" viewBox="0 0 800 400">
  <style>
    @keyframes wave {
      0% { transform: translateY(0); }
      50% { transform: translateY(-10px); }
      100% { transform: translateY(0); }
    }
    
    @keyframes fadeIn {
      0% { opacity: 0; }
      100% { opacity: 1; }
    }
    
    @keyframes pulse {
      0% { transform: scale(1); }
      50% { transform: scale(1.05); }
      100% { transform: scale(1); }
    }
    
    @keyframes rotate {
      0% { transform: rotate(0deg); }
      100% { transform: rotate(360deg); }
    }
    
    .wave-group {
      animation: wave 3s ease-in-out infinite;
    }
    
    .pulse-circle {
      animation: pulse 2s ease-in-out infinite;
    }
    
    .rotate-gear {
      animation: rotate 20s linear infinite;
      transform-origin: center;
    }
    
    .title {
      animation: fadeIn 2s ease-in-out;
    }
  </style>
  
  <!-- Background -->
  <defs>
    <linearGradient id="bg-gradient" x1="0%" y1="0%" x2="100%" y2="100%">
      <stop offset="0%" stop-color="#0D1B3E" />
      <stop offset="100%" stop-color="#1E3A73" />
    </linearGradient>
    <linearGradient id="wave-gradient" x1="0%" y1="0%" x2="100%" y2="0%">
      <stop offset="0%" stop-color="#4285F4" />
      <stop offset="50%" stop-color="#6C5CE7" />
      <stop offset="100%" stop-color="#EA4C89" />
    </linearGradient>
    <filter id="glow" x="-20%" y="-20%" width="140%" height="140%">
      <feGaussianBlur stdDeviation="8" result="blur" />
      <feComposite in="SourceGraphic" in2="blur" operator="over" />
    </filter>
  </defs>
  
  <rect width="800" height="400" rx="20" fill="url(#bg-gradient)" />
  
  <!-- AI/Transformer Icon -->
  <g class="rotate-gear" transform="translate(400, 190) scale(0.8)">
    <circle cx="0" cy="0" r="120" fill="#0D1B3E" stroke="#6C5CE7" stroke-width="2" />
    <g stroke="#6C5CE7" stroke-width="3" fill="none">
      <circle cx="0" cy="0" r="80" />
      <circle cx="0" cy="0" r="100" />
      <line x1="-120" y1="0" x2="120" y2="0" />
      <line x1="0" y1="-120" x2="0" y2="120" />
      <line x1="-85" y1="-85" x2="85" y2="85" />
      <line x1="-85" y1="85" x2="85" y2="-85" />
    </g>
  </g>
  
  <!-- Sound Waves -->
  <g class="wave-group" transform="translate(400, 190)">
    <!-- Circular waves -->
    <g stroke-width="3" fill="none" filter="url(#glow)">
      <circle cx="0" cy="0" r="50" stroke="#4285F4" opacity="0.8" />
      <circle cx="0" cy="0" r="65" stroke="#EA4C89" opacity="0.7" />
      <circle cx="0" cy="0" r="80" stroke="#6C5CE7" opacity="0.6" />
      <circle cx="0" cy="0" r="95" stroke="#4285F4" opacity="0.5" />
      <circle cx="0" cy="0" r="110" stroke="#EA4C89" opacity="0.4" />
    </g>
    
    <!-- Central pulse -->
    <circle class="pulse-circle" cx="0" cy="0" r="25" fill="#EA4C89" opacity="0.7" />
    
    <!-- Sound wave lines -->
    <g stroke="url(#wave-gradient)" stroke-width="4" stroke-linecap="round">
      <!-- Left wave -->
      <path d="M-150,0 C-130,40 -110,-40 -90,0 C-70,40 -50,-40 -30,0" fill="none" />
      <!-- Right wave -->
      <path d="M30,0 C50,40 70,-40 90,0 C110,40 130,-40 150,0" fill="none" />
    </g>
  </g>
  
  <!-- Title -->
  <g class="title" transform="translate(400, 325)">
    <text x="0" y="0" font-family="Arial, sans-serif" font-size="56" font-weight="bold" fill="white" text-anchor="middle">SoundPose</text>
    <text x="0" y="35" font-family="Arial, sans-serif" font-size="20" fill="#AAC3F4" text-anchor="middle">Quantitative Voice Anomaly Detection</text>
  </g>
</svg>
