<?xml version="1.0" encoding="UTF-8"?>
<svg xmlns="http://www.w3.org/2000/svg" viewBox="0 0 950 300">
  <style>
    @keyframes pulse {
      0% { opacity: 0.8; }
      50% { opacity: 1; }
      100% { opacity: 0.8; }
    }
    
    @keyframes moveRight {
      0% { transform: translateX(0); }
      50% { transform: translateX(10px); }
      100% { transform: translateX(0); }
    }
    
    @keyframes fadeIn {
      0% { opacity: 0; }
      100% { opacity: 1; }
    }
    
    @keyframes highlightFlow {
      0% { stroke-dashoffset: 1000; }
      100% { stroke-dashoffset: 0; }
    }
    
    .stage-box {
      animation: pulse 3s infinite;
    }
    
    .arrow {
      animation: moveRight 2s infinite;
    }
    
    .flow-line {
      stroke-dasharray: 1000;
      stroke-dashoffset: 1000;
      animation: highlightFlow 8s forwards;
    }
    
    .icon {
      animation: fadeIn 1s forwards;
    }
  </style>
  
  <defs>
    <linearGradient id="box-gradient-1" x1="0%" y1="0%" x2="100%" y2="100%">
      <stop offset="0%" stop-color="#4285F4" />
      <stop offset="100%" stop-color="#256ce3" />
    </linearGradient>
    
    <linearGradient id="box-gradient-2" x1="0%" y1="0%" x2="100%" y2="100%">
      <stop offset="0%" stop-color="#6C5CE7" />
      <stop offset="100%" stop-color="#5546c5" />
    </linearGradient>
    
    <linearGradient id="box-gradient-3" x1="0%" y1="0%" x2="100%" y2="100%">
      <stop offset="0%" stop-color="#EA4C89" />
      <stop offset="100%" stop-color="#d02e6a" />
    </linearGradient>
    
    <linearGradient id="box-gradient-4" x1="0%" y1="0%" x2="100%" y2="100%">
      <stop offset="0%" stop-color="#27AE60" />
      <stop offset="100%" stop-color="#1f9a51" />
    </linearGradient>
    
    <filter id="shadow" x="-20%" y="-20%" width="140%" height="140%">
      <feDropShadow dx="3" dy="3" stdDeviation="5" flood-opacity="0.3" />
    </filter>
  </defs>
  
  <!-- Flow Line -->
  <path class="flow-line" d="M100,150 H220 M320,150 H420 M520,150 H620 M720,150 H820" stroke="#AAC3F4" stroke-width="3" stroke-linecap="round" fill="none" />
  
  <!-- Stage 1: Audio Input -->
  <g transform="translate(100, 150)">
    <rect class="stage-box" x="-80" y="-60" width="160" height="120" rx="15" fill="url(#box-gradient-1)" filter="url(#shadow)" />
    
    <g class="icon" transform="translate(0, -20)">
      <!-- Microphone icon -->
      <circle cx="0" cy="0" r="25" fill="#FFF" opacity="0.2" />
      <path d="M-7,-15 V5 C-7,12 7,12 7,5 V-15 C7,-22 -7,-22 -7,-15 Z" fill="#FFF" />
      <path d="M-15,0 V5 C-15,20 15,20 15,5 V0" stroke="#FFF" stroke-width="3" fill="none" />
      <line x1="0" y1="20" x2="0" y2="30" stroke="#FFF" stroke-width="3" />
      <path d="M-10,30 H10" stroke="#FFF" stroke-width="3" />
    </g>
    
    <text x="0" y="35" font-family="Arial, sans-serif" font-size="14" font-weight="bold" fill="white" text-anchor="middle">Voice/Sound</text>
    <text x="0" y="55" font-family="Arial, sans-serif" font-size="14" font-weight="bold" fill="white" text-anchor="middle">Input</text>
  </g>
  
  <!-- Arrow 1 -->
  <g class="arrow" transform="translate(270, 150)">
    <polygon points="0,-10 20,0 0,10" fill="#FFF" />
  </g>
  
  <!-- Stage 2: Spectral Analysis -->
  <g transform="translate(320, 150)">
    <rect class="stage-box" x="-80" y="-60" width="160" height="120" rx="15" fill="url(#box-gradient-2)" filter="url(#shadow)" />
    
    <g class="icon" transform="translate(0, -20)">
      <!-- Spectrum icon -->
      <rect x="-25" y="-20" width="50" height="40" fill="#FFF" opacity="0.2" rx="5" />
      <path d="M-20,-15 Q-15,10 -10,-5 Q-5,15 0,-10 Q5,5 10,-5 Q15,10 20,-5" stroke="#FFF" stroke-width="2.5" fill="none" />
    </g>
    
    <text x="0" y="35" font-family="Arial, sans-serif" font-size="14" font-weight="bold" fill="white" text-anchor="middle">Transformer</text>
    <text x="0" y="55" font-family="Arial, sans-serif" font-size="14" font-weight="bold" fill="white" text-anchor="middle">Feature Extraction</text>
  </g>
  
  <!-- Arrow 2 -->
  <g class="arrow" transform="translate(470, 150)">
    <polygon points="0,-10 20,0 0,10" fill="#FFF" />
  </g>
  
  <!-- Stage 3: Anomaly Detection -->
  <g transform="translate(520, 150)">
    <rect class="stage-box" x="-80" y="-60" width="160" height="120" rx="15" fill="url(#box-gradient-3)" filter="url(#shadow)" />
    
    <g class="icon" transform="translate(0, -20)">
      <!-- AI/Anomaly icon -->
      <circle cx="0" cy="0" r="25" fill="#FFF" opacity="0.2" />
      <path d="M-15,-15 L15,15 M-15,15 L15,-15" stroke="#FFF" stroke-width="3" />
      <circle cx="0" cy="0" r="15" stroke="#FFF" stroke-width="2" fill="none" />
    </g>
    
    <text x="0" y="35" font-family="Arial, sans-serif" font-size="14" font-weight="bold" fill="white" text-anchor="middle">Anomaly</text>
    <text x="0" y="55" font-family="Arial, sans-serif" font-size="14" font-weight="bold" fill="white" text-anchor="middle">Quantification</text>
  </g>
  
  <!-- Arrow 3 -->
  <g class="arrow" transform="translate(670, 150)">
    <polygon points="0,-10 20,0 0,10" fill="#FFF" />
  </g>
  
  <!-- Stage 4: Results -->
  <g transform="translate(720, 150)">
    <rect class="stage-box" x="-80" y="-60" width="160" height="120" rx="15" fill="url(#box-gradient-4)" filter="url(#shadow)" />
    
    <g class="icon" transform="translate(0, -20)">
      <!-- Results icon -->
      <circle cx="0" cy="0" r="25" fill="#FFF" opacity="0.2" />
      <path d="M-15,-5 H-5 M5,-5 H15 M-10,5 H10" stroke="#FFF" stroke-width="3" stroke-linecap="round" />
      <path d="M-20,-15 H20 V15 H-20 Z" stroke="#FFF" stroke-width="2" fill="none" />
    </g>
    
    <text x="0" y="35" font-family="Arial, sans-serif" font-size="14" font-weight="bold" fill="white" text-anchor="middle">Diagnostic</text>
    <text x="0" y="55" font-family="Arial, sans-serif" font-size="14" font-weight="bold" fill="white" text-anchor="middle">Results</text>
  </g>
  
  <!-- Title -->
  <text x="475" y="50" font-family="Arial, sans-serif" font-size="24" font-weight="bold" fill="#333" text-anchor="middle">SoundPose Workflow</text>
</svg>
